<svg width="154" height="128" viewBox="0 0 154 128" fill="none" xmlns="http://www.w3.org/2000/svg">
<g id="Character">
<path id="Vector" d="M3.32098 21.9172C1.52331 18.4516 0.769648 15.9682 0.769648 15.3936C0.769648 14.257 3.24067 13.5775 3.24067 13.5775C7.09547 11.5389 25.2266 14.4856 33.3872 15.8446C37.9554 16.641 42.5767 17.0953 47.2126 17.2037C47.2126 17.2037 48.3431 16.3018 49.6836 15.1651C51.0241 14.0284 57.387 6.55356 59.8827 5.89874C62.3785 5.24392 64.6395 6.80684 64.6395 6.80684C64.6395 6.80684 68.7228 9.27787 68.0371 9.75354C67.3514 10.2292 57.387 18.816 54.8913 20.4037C52.3955 21.9913 47.1879 21.3118 42.6535 22.2199C38.7493 22.9982 22.9347 23.9619 19.3085 24.2585C16.5852 24.9044 13.7269 24.6664 11.148 23.5789" fill="white"/>
<g id="Group">
<path id="Vector_2" d="M64.6828 6.78212C64.6828 6.78212 62.4156 5.19449 59.926 5.87402C57.4365 6.55355 51.0859 14.0346 49.7269 15.1404C48.3678 16.2462 47.2558 17.179 47.2558 17.179C42.62 17.0706 37.9987 16.6163 33.4305 15.8199C25.2699 14.4608 7.13874 11.4956 3.28394 13.5527C3.28394 13.5527 0.81291 14.2323 0.81291 15.3689C0.898749 16.0044 1.06267 16.6269 1.30094 17.2222L1.64071 17.3458C1.64071 17.3458 6.16886 16.8701 15.9418 17.1048C25.7147 17.3396 48.3184 18.6801 49.7701 19.2052C50.3879 19.44 54.7678 18.4515 59.6233 16.7342C63.3299 13.7133 67.685 9.93885 68.1237 9.67322C68.7661 9.27168 64.6828 6.78212 64.6828 6.78212Z" fill="#2F80ED"/>
<path id="Vector_3" opacity="0.5" d="M64.6828 6.78212C64.6828 6.78212 62.4156 5.19449 59.926 5.87402C57.4365 6.55355 51.0859 14.0346 49.7269 15.1404C48.3678 16.2462 47.2558 17.179 47.2558 17.179C42.62 17.0706 37.9987 16.6163 33.4305 15.8199C25.2699 14.4608 7.13874 11.4956 3.28394 13.5527C3.28394 13.5527 0.81291 14.2323 0.81291 15.3689C0.898749 16.0044 1.06267 16.6269 1.30094 17.2222L1.64071 17.3458C1.64071 17.3458 6.16886 16.8701 15.9418 17.1048C25.7147 17.3396 48.3184 18.6801 49.7701 19.2052C50.3879 19.44 54.7678 18.4515 59.6233 16.7342C63.3299 13.7133 67.685 9.93885 68.1237 9.67322C68.7661 9.27168 64.6828 6.78212 64.6828 6.78212Z" fill="white"/>
</g>
<path id="Vector_4" d="M3.32098 21.9172C1.52331 18.4516 0.769648 15.9682 0.769648 15.3936C0.769648 14.257 3.24067 13.5775 3.24067 13.5775C7.09547 11.5389 25.2266 14.4856 33.3872 15.8446C37.9554 16.641 42.5767 17.0953 47.2126 17.2037C47.2126 17.2037 48.3431 16.3018 49.6836 15.1651C51.0241 14.0284 57.387 6.55356 59.8827 5.89874C62.3785 5.24392 64.6395 6.80684 64.6395 6.80684C64.6395 6.80684 68.7228 9.27787 68.0371 9.75354C67.3514 10.2292 57.387 18.816 54.8913 20.4037C52.3955 21.9913 47.1879 21.3118 42.6535 22.2199C38.7493 22.9982 22.9347 23.9619 19.3085 24.2585C16.5852 24.9044 13.7269 24.6664 11.148 23.5789" stroke="#263238" stroke-linecap="round" stroke-linejoin="round"/>
<path id="Vector_5" d="M92.8401 42.0683C93.2501 41.29 93.8651 40.6387 94.6185 40.1846C95.372 39.7306 96.2353 39.4912 97.115 39.4923H138.319C138.319 39.4923 141.297 39.4923 140.407 45.151C139.518 50.8096 127.299 85.3607 124.346 95.807C121.393 106.253 120.769 128.27 120.769 128.27H71.3483C71.3483 128.27 75.2649 75.6187 92.8401 42.0683Z" fill="white"/>
<g id="Group_2">
<path id="Vector_6" opacity="0.16" d="M111.397 39.4923H97.1149C96.2352 39.4912 95.372 39.7306 94.6185 40.1846C93.865 40.6387 93.25 41.29 92.84 42.0683C75.2649 75.6187 71.3051 128.252 71.3051 128.252H93.4702L98.9373 107.489L121.733 112.19C121.893 110.448 122.078 108.675 122.295 106.927L121.794 101.367C121.794 101.367 117.124 96.4556 115.654 95.2263C114.184 93.9969 115.16 91.7792 114.912 82.1978C114.665 72.6164 106.066 65.7284 102.866 59.8288C99.6663 53.9293 104.59 50.2413 109.013 44.3417C110.588 42.2104 111.231 40.6413 111.397 39.4923Z" fill="black"/>
</g>
<path id="Vector_7" d="M92.8401 42.0683C93.2501 41.29 93.8651 40.6387 94.6185 40.1846C95.372 39.7306 96.2353 39.4912 97.1149 39.4923H138.319C138.319 39.4923 141.297 39.4923 140.407 45.151C139.518 50.8096 127.299 85.3607 124.346 95.807C121.393 106.253 120.769 128.27 120.769 128.27H71.3483C71.3483 128.27 75.2649 75.6187 92.8401 42.0683Z" stroke="#263238" stroke-linecap="round" stroke-linejoin="round"/>
<path id="Vector_8" d="M133.653 50.6293C129.49 60.3466 120.68 98.8142 119.247 129.56H123.226C123.226 129.56 123.843 107.518 126.802 97.0969C129.761 86.6753 141.993 52.1181 142.864 46.4409C143.735 40.7637 140.776 40.7822 140.776 40.7822C140.776 40.7822 136.995 42.8394 133.653 50.6293Z" fill="#263238" stroke="#263238" stroke-linecap="round" stroke-linejoin="round"/>
<path id="Vector_9" d="M58.7893 29.8985C58.7893 29.8985 52.2164 26.0437 49.7269 19.2484C47.2373 12.4531 69.2171 1.56823 78.7614 0.888699C88.3057 0.209167 90.9991 2.69873 96.6763 12.4469C102.353 22.1951 106.196 35.5634 103.249 42.1363C100.303 48.7092 95.3173 50.2969 98.925 55.7269C102.533 61.157 112.75 76.5762 112.071 83.8287C111.391 91.0811 104.367 97.4193 94.1559 98.1112C83.9444 98.8031 70.3537 92.6688 59.0241 82.6673C47.6944 72.6658 50.635 57.957 54.6998 53.2003C58.7646 48.4436 64.8989 46.6274 65.3499 41.8707C65.8009 37.1139 58.7893 29.8985 58.7893 29.8985Z" fill="#263238" stroke="#263238" stroke-linecap="round" stroke-linejoin="round"/>
<path id="Vector_10" d="M86.8046 19.1434C90.2949 25.6422 94.6624 34.3464 96.0277 39.6035C98.4122 48.808 86.1436 54.6026 89.5474 59.0319" stroke="white" stroke-linecap="round" stroke-linejoin="round"/>
<path id="Vector_11" d="M82.0479 10.6308C82.0479 10.6308 83.407 12.9474 85.2849 16.3574" stroke="white" stroke-linecap="round" stroke-linejoin="round"/>
<path id="Vector_12" d="M100.358 26.9828C100.761 28.2008 101.022 29.461 101.137 30.7387" stroke="white" stroke-linecap="round" stroke-linejoin="round"/>
<path id="Vector_13" d="M84.4077 7.25159C84.4077 7.25159 95.1443 15.1836 99.4315 24.6785" stroke="white" stroke-linecap="round" stroke-linejoin="round"/>
<path id="Vector_14" d="M69.5074 13.2007C61.841 15.3504 50.8141 18.8408 51.7098 20.8547" stroke="white" stroke-linecap="round" stroke-linejoin="round"/>
<path id="Vector_15" d="M76.5931 11.3103C76.5931 11.3103 74.956 11.718 72.5159 12.3728" stroke="white" stroke-linecap="round" stroke-linejoin="round"/>
<path id="Vector_16" d="M67.1105 7.30719C71.5018 5.92323 76.1012 5.31696 80.7011 5.5157" stroke="white" stroke-linecap="round" stroke-linejoin="round"/>
<path id="Vector_17" d="M63.9847 8.58593C64.679 8.22416 65.3972 7.91043 66.1345 7.64694" stroke="white" stroke-linecap="round" stroke-linejoin="round"/>
<path id="Vector_18" d="M0.769658 15.3936C0.766852 15.4368 0.766852 15.4802 0.769658 15.5233C0.766852 15.4802 0.766852 15.4368 0.769658 15.3936ZM3.32099 21.9171C2.28054 20.0118 1.45192 17.9983 0.849969 15.9125C1.44902 17.9993 2.27777 20.0132 3.32099 21.9171ZM0.782015 15.5604C0.782015 15.5975 0.782015 15.6407 0.782015 15.6963C0.794371 15.6407 0.788193 15.5975 0.782015 15.5604ZM0.812896 15.7334C0.820521 15.794 0.832922 15.8539 0.849969 15.9125C0.832922 15.8539 0.820521 15.794 0.812896 15.7334ZM3.32099 21.9109C5.63138 26.287 8.50582 30.3412 11.8707 33.9696C20.0313 42.8096 43.6049 65.9323 45.8473 67.5199C48.0898 69.1075 47.435 73.6357 45.8473 78.17C44.2597 82.7043 38.3663 89.2896 38.5949 96.5297C38.8234 103.77 41.0659 114.889 40.862 117.157C40.6582 119.424 34.9872 127.133 34.9872 127.133H93.464C93.464 127.133 86.1745 117.867 86.1745 114.698C86.1745 111.529 96.1821 70.9237 96.6331 67.977C97.084 65.0303 95.274 62.9917 91.6478 62.7632C88.0216 62.5346 74.1962 59.5879 73.5166 57.3207C72.8371 55.0536 77.1429 46.4421 77.1429 46.4421L63.5522 47.1216C63.5522 47.1216 62.8727 53.015 61.9646 54.1517C61.0565 55.2883 59.6974 53.015 56.5222 51.4335C53.3469 49.8521 47.2558 48.4868 44.9639 46.6706C42.6721 44.8544 20.9394 24.4314 20.9394 24.4314" fill="white"/>
<g id="Group_3">
<path id="Vector_19" d="M48.4358 48.419C49.5663 50.3958 50.6967 52.1811 50.6967 52.1811C50.6967 52.1811 54.5083 54.3247 55.4597 54.3247C56.411 54.3247 62.1314 57.4135 62.1314 57.4135C62.1314 57.4135 66.9005 56.2212 65.2202 52.1687C64.6901 51.1313 64.0209 50.1711 63.231 49.3147C62.9469 51.1124 62.4897 53.466 61.9523 54.1394C61.0442 55.2699 59.6851 53.0027 56.5098 51.4213C54.4527 50.3958 51.123 49.4568 48.4358 48.419Z" fill="#2F80ED"/>
<path id="Vector_20" d="M36.7972 39.2452C29.798 32.765 20.9394 24.4562 20.9394 24.4562L15.7873 23.7148L15.1696 24.0608C15.1696 24.0608 29.7115 36.9286 32.8065 38.3618C34.0586 38.9373 35.4192 39.2386 36.7972 39.2452Z" fill="#2F80ED"/>
<path id="Vector_21" d="M44.13 45.9541L43.574 45.4599C43.8582 45.9294 44.0188 46.2259 44.0188 46.2259L44.13 45.9541Z" fill="#2F80ED"/>
<g id="Group_4" opacity="0.5">
<path id="Vector_22" opacity="0.5" d="M48.4358 48.419C49.5663 50.3958 50.6967 52.1811 50.6967 52.1811C50.6967 52.1811 54.5083 54.3247 55.4597 54.3247C56.411 54.3247 62.1314 57.4135 62.1314 57.4135C62.1314 57.4135 66.9005 56.2212 65.2202 52.1687C64.6901 51.1313 64.0209 50.1711 63.231 49.3147C62.9469 51.1124 62.4897 53.466 61.9523 54.1394C61.0442 55.2699 59.6851 53.0027 56.5098 51.4213C54.4527 50.3958 51.123 49.4568 48.4358 48.419Z" fill="white"/>
<path id="Vector_23" opacity="0.5" d="M36.7972 39.2452C29.798 32.765 20.9394 24.4562 20.9394 24.4562L15.7873 23.7148L15.1696 24.0608C15.1696 24.0608 29.7115 36.9286 32.8065 38.3618C34.0586 38.9373 35.4192 39.2386 36.7972 39.2452Z" fill="white"/>
<path id="Vector_24" opacity="0.5" d="M44.13 45.9541L43.574 45.4599C43.8582 45.9294 44.0188 46.2259 44.0188 46.2259L44.13 45.9541Z" fill="white"/>
</g>
</g>
<path id="Vector_25" d="M3.32099 21.9109C5.63138 26.287 8.50582 30.3412 11.8707 33.9696C20.0313 42.8096 43.6049 65.9323 45.8473 67.5199C48.0898 69.1075 47.435 73.6357 45.8473 78.17C44.2597 82.7043 38.3663 89.2896 38.5949 96.5297C38.8234 103.77 41.0659 114.889 40.862 117.157C40.6582 119.424 34.9872 127.133 34.9872 127.133H93.464C93.464 127.133 86.1745 117.867 86.1745 114.698C86.1745 111.529 96.1821 70.9237 96.6331 67.977C97.084 65.0303 95.274 62.9917 91.6478 62.7632C88.0216 62.5346 74.1962 59.5879 73.5166 57.3207C72.8371 55.0536 77.1429 46.4421 77.1429 46.4421L63.5522 47.1216C63.5522 47.1216 62.8727 53.015 61.9646 54.1517C61.0565 55.2883 59.6974 53.015 56.5222 51.4335C53.3469 49.8521 47.2558 48.4868 44.9639 46.6706C42.6721 44.8544 20.9394 24.4314 20.9394 24.4314M0.769658 15.3936C0.766852 15.4368 0.766852 15.4802 0.769658 15.5233C0.766852 15.4802 0.766852 15.4368 0.769658 15.3936V15.3936ZM3.32099 21.9171C2.28054 20.0118 1.45192 17.9983 0.849969 15.9125C1.44902 17.9993 2.27777 20.0132 3.32099 21.9171V21.9171ZM0.782015 15.5604C0.782015 15.5975 0.782015 15.6407 0.782015 15.6963C0.794371 15.6407 0.788193 15.5975 0.782015 15.5604V15.5604ZM0.812896 15.7334C0.820521 15.794 0.832922 15.8539 0.849969 15.9125C0.832922 15.8539 0.820521 15.794 0.812896 15.7334Z" stroke="#263238" stroke-linecap="round" stroke-linejoin="round"/>
<path id="Vector_26" d="M20.9394 24.4561C20.9394 24.4561 13.6993 24.592 9.65917 21.2623" stroke="#263238" stroke-linecap="round" stroke-linejoin="round"/>
<path id="Vector_27" d="M73.5228 57.3208C72.8433 55.0598 77.149 46.4421 77.149 46.4421L63.5584 47.1216C63.5584 47.1216 62.8789 53.015 61.9708 54.1517C61.0627 55.2884 59.7036 53.015 56.5283 51.4335C56.2874 51.31 56.0218 51.1926 55.75 51.0753L54.9283 63.9925C54.9283 63.9925 56.1206 76.5021 70.4155 74.1237C76.2039 73.16 82.3814 67.9956 87.7127 62.1887C82.227 61.1817 74.0417 59.0567 73.5228 57.3208Z" fill="white"/>
<g id="Group_5">
<path id="Vector_28" d="M73.1398 48.1533C73.1398 48.1533 72.3182 52.7617 71.6572 57.8582C70.9962 62.9547 70.5082 66.7477 70.5082 66.7477L73.5228 57.3208L76.9205 47.3317C76.9205 47.3317 73.634 47.3317 73.1398 48.1533Z" fill="#2F80ED"/>
<path id="Vector_29" opacity="0.5" d="M73.1398 48.1533C73.1398 48.1533 72.3182 52.7617 71.6572 57.8582C70.9962 62.9547 70.5082 66.7477 70.5082 66.7477L73.5228 57.3208L76.9205 47.3317C76.9205 47.3317 73.634 47.3317 73.1398 48.1533Z" fill="white"/>
</g>
<path id="Vector_30" d="M73.5228 57.3208C72.8433 55.0598 77.149 46.4421 77.149 46.4421L63.5584 47.1216C63.5584 47.1216 62.8789 53.015 61.9708 54.1517C61.0627 55.2884 59.7036 53.015 56.5283 51.4335C56.2874 51.31 56.0218 51.1926 55.75 51.0753L54.9283 63.9925C54.9283 63.9925 56.1206 76.5021 70.4155 74.1237C76.2039 73.16 82.3814 67.9956 87.7127 62.1887C82.227 61.1817 74.0417 59.0567 73.5228 57.3208Z" stroke="#263238" stroke-linecap="round" stroke-linejoin="round"/>
<path id="Vector_31" d="M61.9646 54.1516C61.0565 55.2821 59.6974 53.015 56.5222 51.4335C54.5206 50.4266 51.333 49.5123 48.6952 48.5239C47.9477 46.7509 46.9593 44.4405 46.323 43.0444C45.1925 40.5734 43.3763 42.1363 43.3763 42.1363C42.4288 41.0586 41.6631 39.8338 41.1092 38.51C39.9787 36.039 38.1625 36.2429 35.6729 35.7919C33.1833 35.341 27.9633 30.5781 27.9633 30.5781C27.9633 30.5781 25.5232 28.7248 24.5162 27.8043C23.3425 30.1147 20.5317 34.1796 14.453 36.7186C24.1456 46.8436 43.8087 66.0805 45.8721 67.5261C48.1392 69.1075 47.4597 73.6418 45.8721 78.1762C44.2844 82.7105 38.391 89.2958 38.6196 96.5359C38.8482 103.776 41.0906 114.896 40.8868 117.163C40.6829 119.183 36.1609 125.515 35.1787 126.874L37.4829 127.133H49.4798C49.4118 121.055 49.418 96.2456 53.5755 86.3615C58.3384 75.0009 61.9646 54.1516 61.9646 54.1516Z" fill="#2F80ED"/>
<g id="Group_6">
<path id="Vector_32" opacity="0.16" d="M56.5222 51.4335C54.5206 50.4266 51.333 49.5123 48.6952 48.5239C47.9477 46.7509 46.9593 44.4405 46.323 43.0444C45.1925 40.5734 43.3763 42.1363 43.3763 42.1363C42.4288 41.0586 41.6631 39.8338 41.1092 38.51C39.9787 36.039 38.1625 36.2429 35.6729 35.7919C33.1833 35.341 27.9633 30.5781 27.9633 30.5781C27.9633 30.5781 25.5232 28.7248 24.5162 27.8043C24.0138 28.7854 23.4158 29.7144 22.7309 30.5781C26.7834 34.0066 31.2559 37.639 32.8189 38.3618C35.9077 39.7888 36.6304 38.5965 38.9964 40.0297C41.3624 41.4629 44.0003 46.2073 44.0003 46.2073C44.0003 46.2073 45.4334 42.3896 46.6257 45.015C47.818 47.6405 50.6782 52.1625 50.6782 52.1625C50.6782 52.1625 54.4898 54.3061 55.4411 54.3061C56.1886 54.3061 59.8519 56.2088 61.4086 57.0304C61.7546 55.2203 61.9461 54.1331 61.9461 54.1331C61.0565 55.2821 59.6974 53.015 56.5222 51.4335Z" fill="black"/>
</g>
<path id="Vector_33" d="M61.9646 54.1516C61.0565 55.2821 59.6974 53.015 56.5222 51.4335C54.5206 50.4266 51.333 49.5123 48.6952 48.5239C47.9477 46.7509 46.9593 44.4405 46.323 43.0444C45.1925 40.5734 43.3763 42.1363 43.3763 42.1363C42.4288 41.0586 41.6631 39.8338 41.1092 38.51C39.9787 36.039 38.1625 36.2429 35.6729 35.7919C33.1833 35.341 27.9633 30.5781 27.9633 30.5781C27.9633 30.5781 25.5232 28.7248 24.5162 27.8043C23.3425 30.1147 20.5317 34.1796 14.453 36.7186C24.1456 46.8436 43.8087 66.0805 45.8721 67.5261C48.1392 69.1075 47.4597 73.6418 45.8721 78.1762C44.2844 82.7105 38.391 89.2958 38.6196 96.5359C38.8482 103.776 41.0906 114.896 40.8868 117.163C40.6829 119.183 36.1609 125.515 35.1787 126.874L37.4829 127.133H49.4798C49.4118 121.055 49.418 96.2456 53.5755 86.3615C58.3384 75.0009 61.9646 54.1516 61.9646 54.1516Z" stroke="#263238" stroke-linecap="round" stroke-linejoin="round"/>
<path id="Vector_34" d="M62.1252 53.361C62.1252 53.361 59.3082 52.4961 57.5723 54.0158C55.8364 55.5355 53.248 63.3316 51.7222 71.7886C50.7817 76.7119 51.4307 81.8066 53.5755 86.3368C53.5755 86.3368 57.1399 76.9901 58.221 72.4373C59.3021 67.8844 62.1252 53.361 62.1252 53.361Z" fill="#2F80ED"/>
<g id="Group_7">
<path id="Vector_35" opacity="0.16" d="M56.7198 54.7385C56.7198 54.7385 58.7584 54.2443 59.5986 54.5285C60.306 54.8319 60.9673 55.2333 61.563 55.7207L62.1252 53.3609C61.2819 52.93 60.3255 52.7724 59.3885 52.91C57.9862 53.1941 56.7198 54.7385 56.7198 54.7385Z" fill="black"/>
</g>
<path id="Vector_36" d="M62.1252 53.361C62.1252 53.361 59.3082 52.4961 57.5723 54.0158C55.8364 55.5355 53.248 63.3316 51.7222 71.7886C50.7817 76.7119 51.4307 81.8066 53.5755 86.3368C53.5755 86.3368 57.1399 76.9901 58.221 72.4373C59.3021 67.8844 62.1252 53.361 62.1252 53.361Z" stroke="#263238" stroke-linecap="round" stroke-linejoin="round"/>
<path id="Vector_37" d="M43.1539 54.1023L46.7801 68.8358L38.6196 50.2475" stroke="#263238" stroke-linecap="round" stroke-linejoin="round"/>
<path id="Vector_38" d="M67.0425 127.133H93.4702C93.4702 127.133 86.1806 117.867 86.1806 114.698C86.1806 111.529 96.1883 70.9238 96.6393 67.9771C97.0902 65.0304 95.2802 62.9918 91.654 62.7632C88.0277 62.5346 74.2023 59.5879 73.5228 57.3208C73.5228 57.3208 68.3089 75.6805 66.4989 88.1468C64.9422 98.8402 66.5545 121.03 67.0425 127.133Z" fill="#2F80ED"/>
<g id="Group_8">
<path id="Vector_39" opacity="0.16" d="M91.654 62.7632C88.6826 62.5779 78.8664 60.564 75.0425 58.5995L76.4324 61.8119C78.9508 63.1479 81.6593 64.0896 84.4633 64.6041C89.0656 65.4257 93.3466 65.2651 96.1451 69.3794L96.281 69.5832C96.4539 68.7925 96.5713 68.2365 96.6084 67.9771C97.0964 65.0304 95.2802 62.9918 91.654 62.7632Z" fill="black"/>
</g>
<path id="Vector_40" d="M67.0425 127.133H93.4702C93.4702 127.133 86.1806 117.867 86.1806 114.698C86.1806 111.529 96.1883 70.9238 96.6393 67.9771C97.0902 65.0304 95.2802 62.9918 91.654 62.7632C88.0277 62.5346 74.2023 59.5879 73.5228 57.3208C73.5228 57.3208 68.3089 75.6805 66.4989 88.1468C64.9422 98.8402 66.5545 121.03 67.0425 127.133Z" stroke="#263238" stroke-linecap="round" stroke-linejoin="round"/>
<path id="Vector_41" d="M73.5228 57.3208C73.5228 57.3208 66.5298 79.56 66.4989 88.1468C66.4989 88.1468 76.4325 76.1191 77.7297 67.6682C79.027 59.2173 73.5228 57.3208 73.5228 57.3208Z" fill="#2F80ED"/>
<g id="Group_9">
<path id="Vector_42" opacity="0.16" d="M72.3182 60.1625C73.369 60.1272 74.4125 60.3484 75.3586 60.807C76.3047 61.2655 77.1249 61.9475 77.7483 62.7941C77.7483 62.7941 76.3769 58.7601 73.5228 57.3208L72.3182 60.1625Z" fill="black"/>
</g>
<path id="Vector_43" d="M73.5228 57.3208C73.5228 57.3208 66.5298 79.56 66.4989 88.1468C66.4989 88.1468 76.4325 76.1191 77.7297 67.6682C79.027 59.2173 73.5228 57.3208 73.5228 57.3208Z" stroke="#263238" stroke-linecap="round" stroke-linejoin="round"/>
<path id="Vector_44" d="M148.179 122.951C148.179 122.951 153.3 123.161 156.654 123.643C158.891 123.946 161.143 124.126 163.4 124.181C163.4 124.181 161.547 120.437 159.57 119.381C157.593 118.324 154.01 116.434 151.008 116.854C148.006 117.274 143.712 120.301 144.071 121.265C144.429 122.228 146.029 122.661 148.179 122.951Z" fill="white"/>
<g id="Group_10">
<path id="Vector_45" d="M148.179 122.951C148.179 122.951 153.3 123.161 156.654 123.643C158.891 123.946 161.143 124.126 163.4 124.181C163.4 124.181 161.547 120.437 159.57 119.381C157.593 118.324 154.01 116.434 151.008 116.854C148.006 117.274 143.712 120.301 144.071 121.265C144.429 122.228 146.029 122.661 148.179 122.951Z" fill="#2F80ED"/>
<path id="Vector_46" opacity="0.5" d="M148.179 122.951C148.179 122.951 153.3 123.161 156.654 123.643C158.891 123.946 161.143 124.126 163.4 124.181C163.4 124.181 161.547 120.437 159.57 119.381C157.593 118.324 154.01 116.434 151.008 116.854C148.006 117.274 143.712 120.301 144.071 121.265C144.429 122.228 146.029 122.661 148.179 122.951Z" fill="white"/>
</g>
<path id="Vector_47" d="M148.179 122.951C148.179 122.951 153.3 123.161 156.654 123.643C158.891 123.946 161.143 124.126 163.4 124.181C163.4 124.181 161.547 120.437 159.57 119.381C157.593 118.324 154.01 116.434 151.008 116.854C148.006 117.274 143.712 120.301 144.071 121.265C144.429 122.228 146.029 122.661 148.179 122.951Z" stroke="#263238" stroke-linecap="round" stroke-linejoin="round"/>
<path id="Vector_48" d="M153.788 117.954C153.788 117.954 159.199 117.781 160.274 118.324C161.349 118.868 166.205 127.195 165.476 127.801C164.747 128.406 162.733 128.227 162.795 127.553C162.857 126.88 158.322 122.42 158.322 122.42L154.795 121.648L153.788 117.954Z" fill="white"/>
<g id="Group_11">
<path id="Vector_49" d="M153.788 117.954C153.788 117.954 159.199 117.781 160.274 118.324C161.349 118.868 166.205 127.195 165.476 127.801C164.747 128.406 162.733 128.227 162.795 127.553C162.857 126.88 158.322 122.42 158.322 122.42L154.795 121.648L153.788 117.954Z" fill="#2F80ED"/>
<path id="Vector_50" opacity="0.5" d="M153.788 117.954C153.788 117.954 159.199 117.781 160.274 118.324C161.349 118.868 166.205 127.195 165.476 127.801C164.747 128.406 162.733 128.227 162.795 127.553C162.857 126.88 158.322 122.42 158.322 122.42L154.795 121.648L153.788 117.954Z" fill="white"/>
</g>
<path id="Vector_51" d="M153.788 117.954C153.788 117.954 159.199 117.781 160.274 118.324C161.349 118.868 166.205 127.195 165.476 127.801C164.747 128.406 162.733 128.227 162.795 127.553C162.857 126.88 158.322 122.42 158.322 122.42L154.795 121.648L153.788 117.954Z" stroke="#263238" stroke-linecap="round" stroke-linejoin="round"/>
<path id="Vector_52" d="M150.582 116.835C150.582 116.835 156.061 116.656 157.148 117.212C158.236 117.768 163.153 126.188 162.412 126.806C161.67 127.424 159.644 127.232 159.706 126.553C159.768 125.873 155.178 121.357 155.178 121.357L151.607 120.573L150.582 116.835Z" fill="white"/>
<g id="Group_12">
<path id="Vector_53" d="M150.582 116.835C150.582 116.835 156.061 116.656 157.148 117.212C158.236 117.768 163.153 126.188 162.412 126.806C161.67 127.424 159.644 127.232 159.706 126.553C159.768 125.873 155.178 121.357 155.178 121.357L151.607 120.573L150.582 116.835Z" fill="#2F80ED"/>
<path id="Vector_54" opacity="0.5" d="M150.582 116.835C150.582 116.835 156.061 116.656 157.148 117.212C158.236 117.768 163.153 126.188 162.412 126.806C161.67 127.424 159.644 127.232 159.706 126.553C159.768 125.873 155.178 121.357 155.178 121.357L151.607 120.573L150.582 116.835Z" fill="white"/>
</g>
<path id="Vector_55" d="M150.582 116.835C150.582 116.835 156.061 116.656 157.148 117.212C158.236 117.768 163.153 126.188 162.412 126.806C161.67 127.424 159.644 127.232 159.706 126.553C159.768 125.873 155.178 121.357 155.178 121.357L151.607 120.573L150.582 116.835Z" stroke="#263238" stroke-linecap="round" stroke-linejoin="round"/>
<path id="Vector_56" d="M88.281 85.441C92.247 91.5506 100.21 107.032 102.533 108.774C106.159 111.492 130.4 118.089 132.735 119.893C135.07 121.697 134.909 123.507 137.121 124.168C139.332 124.829 147.623 126.726 150.786 127.022C153.949 127.319 152.534 125.36 152.534 125.36L147.141 121.654L151.842 120.493C151.842 120.493 156.555 126.164 157.439 126.472C158.322 126.781 159.879 126.472 159.78 125.774C159.607 124.656 154.579 115.507 152.793 115.118C151.008 114.729 140.173 116.23 140.173 116.23C140.173 116.23 117.445 100.903 117.038 100.36C117.038 100.36 115.679 96.5051 114.567 94.9174C113.455 93.3298 112.75 93.7869 112.75 93.7869C112.75 93.7869 113.207 91.7422 112.528 91.0626L108.902 87.4364L108.772 87.6094C108.154 86.3738 107.536 84.9654 106.857 83.3592C104.96 78.8928 98.2454 66.3585 97.1149 64.5485C96.2686 63.1956 89.1768 62.2257 85.5814 61.818" fill="#2F80ED"/>
<g id="Group_13">
<path id="Vector_57" opacity="0.16" d="M104.071 85.8302C107.036 88.4619 106.048 88.4619 105.387 90.7723C104.726 93.0827 105.881 89.9507 108.679 90.1175C111.478 90.2843 110.656 93.8981 110.323 94.5591C109.989 95.2201 113.782 96.0417 113.121 97.5182C112.46 98.9946 108.679 101.138 106.542 103.282C104.404 105.425 112.133 99.8224 114.764 99.6618C115.567 99.6062 116.228 99.7112 116.784 99.6988C116.201 98.0459 115.452 96.4563 114.548 94.9545C113.411 93.3668 112.732 93.824 112.732 93.824C112.732 93.824 113.189 91.7792 112.509 91.0997L108.883 87.4734L108.753 87.6464C108.136 86.4109 107.518 85.0024 106.838 83.3963C104.942 78.9299 98.2269 66.3956 97.0964 64.5856C96.2501 63.2327 89.1582 62.2628 85.5629 61.8551L85.8903 64.7153L85.9706 64.7771C85.9706 64.7771 90.4123 65.5987 91.8949 65.7655C93.3775 65.9323 95.1875 67.2419 95.0207 68.2365C94.8539 69.2311 90.5791 73.6666 91.8949 74.0002C93.2107 74.3338 94.6933 70.7075 96.1759 71.2017C97.6586 71.6959 101.087 83.1986 104.071 85.8302Z" fill="black"/>
</g>
<path id="Vector_58" d="M88.281 85.441C92.247 91.5506 100.21 107.032 102.533 108.774C106.159 111.492 130.4 118.089 132.735 119.893C135.07 121.697 134.909 123.507 137.121 124.168C139.332 124.829 147.623 126.726 150.786 127.022C153.949 127.319 152.534 125.36 152.534 125.36L147.141 121.654L151.842 120.493C151.842 120.493 156.555 126.164 157.439 126.472C158.322 126.781 159.879 126.472 159.78 125.774C159.607 124.656 154.579 115.507 152.793 115.118C151.008 114.729 140.173 116.23 140.173 116.23C140.173 116.23 117.445 100.903 117.038 100.36C117.038 100.36 115.679 96.5051 114.567 94.9174C113.455 93.3298 112.75 93.7869 112.75 93.7869C112.75 93.7869 113.207 91.7422 112.528 91.0626L108.902 87.4364L108.772 87.6093C108.154 86.3738 107.536 84.9654 106.857 83.3592C104.96 78.8928 98.2454 66.3585 97.1149 64.5485C96.2686 63.1956 89.1768 62.2257 85.5814 61.818" stroke="#263238" stroke-linecap="round" stroke-linejoin="round"/>
<path id="Vector_59" d="M88.3428 77.0581C88.176 77.6141 88.0339 78.1701 87.9227 78.7384" stroke="#263238" stroke-linecap="round" stroke-linejoin="round"/>
<path id="Vector_60" d="M94.3474 66.8342C92.4062 69.0468 90.7691 71.5087 89.4795 74.1546" stroke="#263238" stroke-linecap="round" stroke-linejoin="round"/>
<path id="Vector_61" d="M103.422 101.91C105.09 99.4394 107.747 96.3073 110.675 95.4116" stroke="#263238" stroke-linecap="round" stroke-linejoin="round"/>
<path id="Vector_62" d="M101.575 104.95C101.575 104.95 101.872 104.369 102.403 103.492" stroke="#263238" stroke-linecap="round" stroke-linejoin="round"/>
<path id="Vector_63" d="M101.575 101.046C101.575 101.046 104.608 93.4595 107.641 91.5074C110.675 89.5553 108.939 93.4595 108.939 93.4595" stroke="#263238" stroke-linecap="round" stroke-linejoin="round"/>
<path id="Vector_64" d="M132.735 119.899C135.076 121.71 134.909 123.513 137.121 124.174C139.332 124.835 147.623 126.732 150.786 127.028C153.949 127.325 152.534 125.367 152.534 125.367L147.141 121.66L151.842 120.499C151.842 120.499 156.555 126.17 157.439 126.479C158.322 126.787 160.003 126.899 159.78 125.781C159.348 123.618 154.579 115.513 152.793 115.124C151.008 114.735 140.173 116.236 140.173 116.236C140.173 116.236 119.472 102.028 117.204 100.49C108.414 101.336 104.231 105.938 102.471 108.7L102.533 108.749C106.159 111.492 130.4 118.089 132.735 119.899Z" fill="white"/>
<g id="Group_14">
<path id="Vector_65" d="M159.774 125.805C158.65 123.056 154.572 115.538 152.787 115.149C151.002 114.76 140.166 116.261 140.166 116.261C140.166 116.261 119.465 102.052 117.198 100.514C114.891 100.715 112.627 101.263 110.483 102.139C113.751 103.992 135.533 116.347 138.282 116.897C141.198 117.515 150.928 115.915 152.639 117.064C153.726 117.793 156.963 122.926 159.15 126.571C159.774 126.479 160.003 126.361 159.774 125.805Z" fill="#2F80ED"/>
<path id="Vector_66" opacity="0.5" d="M159.774 125.805C158.02 121.87 154.572 115.538 152.787 115.149C151.002 114.76 140.166 116.261 140.166 116.261C140.166 116.261 119.465 102.052 117.198 100.514C114.891 100.715 112.627 101.263 110.483 102.139C113.751 103.992 135.533 116.347 138.282 116.897C141.198 117.515 150.928 115.915 152.639 117.064C153.726 117.793 156.963 122.926 159.15 126.571C159.774 126.479 160.021 126.355 159.774 125.805Z" fill="white"/>
</g>
<path id="Vector_67" d="M132.735 119.899C135.076 121.71 134.909 123.513 137.121 124.174C139.332 124.835 147.623 126.732 150.786 127.028C153.949 127.325 152.534 125.367 152.534 125.367L147.141 121.66L151.842 120.499C151.842 120.499 156.555 126.17 157.439 126.479C158.322 126.787 160.003 126.899 159.78 125.781C159.348 123.618 154.579 115.513 152.793 115.124C151.008 114.735 140.173 116.236 140.173 116.236C140.173 116.236 119.472 102.028 117.204 100.49C108.414 101.336 104.231 105.938 102.471 108.7L102.533 108.749C106.159 111.492 130.4 118.089 132.735 119.899Z" stroke="#263238" stroke-linecap="round" stroke-linejoin="round"/>
<path id="Vector_68" d="M78.1375 12.0269L59.5306 19.7921C59.3051 23.0622 58.4954 26.2654 57.1399 29.2499C54.9407 33.9016 56.2256 42.7046 58.3384 47.4552C60.4511 52.2057 69.7607 50.3463 73.1645 49.7532C75.4731 49.3141 77.7342 48.6542 79.9166 47.7826C80.9103 48.1656 81.9852 48.2894 83.0399 48.1424C84.0947 47.9954 85.0947 47.5825 85.9459 46.9424C85.9459 46.9424 75.9877 18.989 78.1375 12.0269Z" fill="white"/>
<g id="Group_15">
<path id="Vector_69" d="M78.1375 12.0269L59.5306 19.7921C59.3051 23.0622 58.4954 26.2654 57.1399 29.2499C54.9407 33.9016 56.2256 42.7046 58.3384 47.4552C58.692 48.2191 59.261 48.8632 59.9754 49.3084V48.9501C59.9754 48.9501 56.5222 40.3942 57.177 35.4584C57.8318 30.5225 60.6364 28.0453 60.9638 24.9256C61.2913 21.8059 61.1245 20.3233 67.3823 18.0191C73.6402 15.7149 76.2657 13.5774 76.9205 15.8755C77.5753 18.1735 80.2131 33.3209 82.0232 36.941C83.8332 40.561 83.6664 44.354 80.8741 45.9911C78.052 47.6852 75.0281 49.0176 71.8734 49.9571L73.1892 49.7285C75.4978 49.2894 77.7589 48.6295 79.9413 47.7579C80.935 48.1409 82.0099 48.2647 83.0646 48.1177C84.1194 47.9707 85.1194 47.5578 85.9706 46.9177C85.9706 46.9177 75.9877 18.989 78.1375 12.0269Z" fill="#2F80ED"/>
<path id="Vector_70" opacity="0.5" d="M78.1375 12.0269L59.5306 19.7921C59.3051 23.0622 58.4954 26.2654 57.1399 29.2499C54.9407 33.9016 56.2256 42.7046 58.3384 47.4552C58.692 48.2191 59.261 48.8632 59.9754 49.3084V48.9501C59.9754 48.9501 56.5222 40.3942 57.177 35.4584C57.8318 30.5225 60.6364 28.0453 60.9638 24.9256C61.2913 21.8059 61.1245 20.3233 67.3823 18.0191C73.6402 15.7149 76.2657 13.5774 76.9205 15.8755C77.5753 18.1735 80.2131 33.3209 82.0232 36.941C83.8332 40.561 83.6664 44.354 80.8741 45.9911C78.052 47.6852 75.0281 49.0176 71.8734 49.9571L73.1892 49.7285C75.4978 49.2894 77.7589 48.6295 79.9413 47.7579C80.935 48.1409 82.0099 48.2647 83.0646 48.1177C84.1194 47.9707 85.1194 47.5578 85.9706 46.9177C85.9706 46.9177 75.9877 18.989 78.1375 12.0269Z" fill="white"/>
</g>
<path id="Vector_71" d="M78.1375 12.0269L59.5306 19.7921C59.3051 23.0622 58.4954 26.2654 57.1399 29.2499C54.9407 33.9016 56.2256 42.7046 58.3384 47.4552C60.4511 52.2057 69.7607 50.3463 73.1645 49.7532C75.4731 49.3141 77.7342 48.6542 79.9166 47.7826C80.9103 48.1656 81.9852 48.2894 83.0399 48.1424C84.0947 47.9954 85.0947 47.5825 85.9459 46.9424C85.9459 46.9424 75.9877 18.989 78.1375 12.0269Z" stroke="#263238" stroke-linecap="round" stroke-linejoin="round"/>
<path id="Vector_72" d="M86.2177 52.2242C86.2177 53.6636 85.4023 54.8312 84.4015 54.8312C83.4007 54.8312 82.5915 53.6636 82.5915 52.2242C82.5915 50.7849 83.4007 47.1216 84.4015 47.1216C85.4023 47.1216 86.2177 50.7849 86.2177 52.2242Z" fill="#2F80ED" stroke="#263238" stroke-linecap="round" stroke-linejoin="round"/>
</g>
</svg>
